<mxfile host="app.diagrams.net" modified="2024-04-25T10:45:23.096Z" agent="Mozilla/5.0 (Windows NT 10.0; Win64; x64) AppleWebKit/537.36 (KHTML, like Gecko) Chrome/124.0.0.0 Safari/537.36 Edg/124.0.0.0" etag="VkXmth_TcYM_RtdC0fv4" version="24.2.8" type="github">
  <diagram id="prtHgNgQTEPvFCAcTncT" name="Page-1">
    <mxGraphModel dx="1002" dy="569" grid="0" gridSize="10" guides="1" tooltips="1" connect="1" arrows="1" fold="1" page="1" pageScale="1" pageWidth="827" pageHeight="1169" math="0" shadow="0">
      <root>
        <mxCell id="0" />
        <mxCell id="1" parent="0" />
        <mxCell id="Q8eqLasTTLZAhPO69SnR-7" value="" style="edgeStyle=orthogonalEdgeStyle;rounded=0;orthogonalLoop=1;jettySize=auto;html=1;" edge="1" parent="1" source="Q8eqLasTTLZAhPO69SnR-5">
          <mxGeometry relative="1" as="geometry">
            <mxPoint x="414" y="152" as="targetPoint" />
          </mxGeometry>
        </mxCell>
        <mxCell id="Q8eqLasTTLZAhPO69SnR-5" value="IEC61131-3编程语言（LD、FBD、IL、ST、SFC）" style="rounded=1;whiteSpace=wrap;html=1;fillColor=#f5f5f5;fontColor=#333333;strokeColor=#666666;" vertex="1" parent="1">
          <mxGeometry x="229" y="122" width="120" height="60" as="geometry" />
        </mxCell>
        <mxCell id="Q8eqLasTTLZAhPO69SnR-9" value="" style="edgeStyle=orthogonalEdgeStyle;rounded=0;orthogonalLoop=1;jettySize=auto;html=1;" edge="1" parent="1">
          <mxGeometry relative="1" as="geometry">
            <mxPoint x="474" y="182" as="sourcePoint" />
            <mxPoint x="474" y="223" as="targetPoint" />
          </mxGeometry>
        </mxCell>
        <mxCell id="Q8eqLasTTLZAhPO69SnR-10" value="PLCopen TC6-XML" style="rounded=1;whiteSpace=wrap;html=1;fillColor=#f5f5f5;fontColor=#333333;strokeColor=#666666;" vertex="1" parent="1">
          <mxGeometry x="414" y="122" width="120" height="60" as="geometry" />
        </mxCell>
        <mxCell id="Q8eqLasTTLZAhPO69SnR-11" value="ST文件" style="rounded=1;whiteSpace=wrap;html=1;fillColor=#f5f5f5;fontColor=#333333;strokeColor=#666666;" vertex="1" parent="1">
          <mxGeometry x="414" y="224" width="120" height="60" as="geometry" />
        </mxCell>
      </root>
    </mxGraphModel>
  </diagram>
</mxfile>
